<!-- Generator: Adobe Illustrator 19.0.0, SVG Export Plug-In  -->
<svg version="1.1"
	 xmlns="http://www.w3.org/2000/svg" xmlns:xlink="http://www.w3.org/1999/xlink" xmlns:a="http://ns.adobe.com/AdobeSVGViewerExtensions/3.0/"
	 x="0px" y="0px" width="108.402px" height="36px" viewBox="0 0 108.402 36" style="enable-background:new 0 0 108.402 36;"
	 xml:space="preserve">
<style type="text/css">
	.st0{fill:#D82A5D;}
	.st1{fill:#419D5E;}
</style>
<defs>
</defs>
<g id="XMLID_15_">
	<path id="XMLID_29_" class="st0" d="M75.1929,33.0935c0.1636-0.9705,0.4927-1.7833,1.0249-2.6505
		c2.3333,0.6345,4.7218,1.4827,7.011-0.005c0.8579-0.5575,1.4427-1.4139,1.4376-2.6497c-0.8497,0.1169-1.5947,0.273-2.346,0.3137
		c-3.4344,0.1861-5.324-1.6489-5.3038-5.1112c0.0341-5.8277,5.1827-10.0809,11.1665-9.1768
		c1.0574,0.1598,2.1966,0.1869,3.2236,1.1059c-0.8223,3.4866-1.6424,7.0537-2.5121,10.6087
		c-0.3511,1.4351-0.639,2.8861-1.2137,4.2682c-0.9431,2.2678-2.5659,3.6554-4.9688,4.1392
		C80.1385,34.4541,77.6258,34.4731,75.1929,33.0935z M87.3831,17.053c-3.1963-0.711-5.7908,0.8423-6.5725,3.8521
		c-0.3607,1.389-0.7288,2.8956,0.629,3.9042c1.3233,0.983,2.6946,0.397,3.9438-0.4041c0.1059-0.0679,0.1897-0.1705,0.3484-0.3165
		C86.2729,21.7832,86.8279,19.4186,87.3831,17.053z"/>
	<path id="XMLID_28_" class="st1" d="M56.8334,14.0785c-0.3451,3.9683-2.2914,7.4769-1.891,11.2646
		c2.0693,1.6849,4.3342,0.88,4.8715-1.5691c0.7012-3.1963,1.4275-6.387,2.1475-9.6005c1.2199-0.2067,2.2868-0.1335,3.3922-0.0545
		c-0.3846,4.9332-3.1841,9.387-1.7578,14.4747c-0.9393,0.2099-1.7384,0.3884-2.3179,0.5179
		c-0.844-0.0429-0.9639-0.6619-1.3009-1.006c-0.2485,0.0591-0.4423,0.0773-0.6124,0.1506
		c-0.5912,0.2547-1.1499,0.6285-1.7645,0.7783c-3.374,0.8219-6.4965-0.3798-6.2857-4.666c0.0254-0.5159-0.0182-1.0482,0.0947-1.5446
		c0.6434-2.8271,1.3246-5.6457,2.0024-8.5068C54.5433,13.7513,55.6642,14.1792,56.8334,14.0785z"/>
	<path id="XMLID_27_" class="st1" d="M69.1907,10.3843c1.164-0.476,2.1993-0.7426,3.4472-0.5317
		c0.2275,1.3665-0.5926,2.5881-0.6393,4.1273c1.4867,0,2.9311,0,4.442,0c0.2336,1.1372-0.3782,1.884-0.3244,2.7253
		c-1.6837,0.5204-3.2652,0.0099-4.9639,0.4458c-0.577,2.7852-1.8784,5.4905-1.4669,8.404c1.5246,1.2985,2.9836,0.4112,4.5329,0.3201
		c0.1156,0.8176,0.2292,1.6212,0.3542,2.5056c-2.0634,1.08-4.15,1.1515-6.2357,0.6159c-1.568-0.4027-2.1867-1.664-2.3111-3.2179
		c-0.153-1.9095,0.4065-3.7015,0.8364-5.5181C67.646,16.9481,68.4247,13.6344,69.1907,10.3843z"/>
	<path id="XMLID_26_" class="st0" d="M108.402,14.2024c-0.0998,1.0718-0.3991,1.9064-0.8729,2.8189
		c-1.4631-0.1099-2.9843-0.4972-4.6417,0.0829c-0.9166,3.803-1.8457,7.6574-2.7874,11.5646
		c-1.0927,0.3823-2.1518,0.2478-3.5141,0.0933c1.1241-4.7087,2.2192-9.2955,3.3224-13.9167
		C102.6865,13.7957,105.4086,13.3572,108.402,14.2024z"/>
	<path id="XMLID_25_" class="st0" d="M93.9521,28.755c-1.225,0.1882-2.236,0.1671-3.5258,0.004
		c1.1113-4.6451,2.1959-9.179,3.2737-13.6841c1.1023-0.7829,2.2792-0.9091,3.778-1.0461
		C96.2726,19.0632,95.1257,23.8535,93.9521,28.755z"/>
	<path id="XMLID_24_" class="st0" d="M96.9665,9.7583c0.8746,0.9447,1.1674,1.9692,0.3454,3.0882
		c-0.6948,0.9459-1.9985,1.192-2.8898,0.5901c-0.9253-0.6248-1.0503-1.8016-0.2776-2.8573
		c0.2206-0.3014,0.5108-0.5519,0.7692-0.8258C95.5979,9.7551,96.2822,9.7567,96.9665,9.7583z"/>
	<path id="XMLID_23_" class="st1" d="M96.9665,9.7583c-0.6843-0.0016-1.3686-0.0032-2.0529-0.0048
		c-0.5984-0.4761-0.6259-1.0574-0.2572-1.8667c1.0257,0.6043,2.0903-0.446,3.1894,0.1141
		C98.0567,8.8504,97.467,9.2823,96.9665,9.7583z"/>
	<path id="XMLID_22_" class="st0" d="M0.0284,19.2752c0.2279-0.8055,0.4114-1.6268,0.691-2.4139
		c1.6324-4.5953,5.3103-6.3672,9.8416-4.5797c1.3793,0.5441,1.9012,0.4137,2.5595-0.9897
		c2.1138-4.5063,6.0118-6.4261,10.7826-6.6035c4.5371-0.1688,8.2241,1.5799,10.4429,5.6842
		c0.4973,0.9199,0.6424,2.2403,0.4488,3.2834c-0.5401,2.9091-1.2583,5.7941-2.0863,8.6362
		c-0.305,1.0468-0.8864,2.2852-1.7329,2.8543c-3.3573,2.257-6.8271,4.3577-10.3419,6.3645
		c-1.7397,0.9933-3.8311,1.5105-3.5953,4.1544c0.0092,0.103-0.1708,0.2229-0.2627,0.3349c-0.113-0.1499-0.2574-0.2853-0.3341-0.4519
		c-0.59-1.2814-0.6575-2.5791,0.4788-3.5434c0.9689-0.8222,2.1495-1.3898,3.2024-2.1191c2.5852-1.7906,5.429-3.3239,7.6535-5.4899
		c2.7346-2.6626,2.9789-6.1749,1.5452-9.7103c-1.2527-3.0891-3.7516-4.6046-6.9263-4.7602
		c-3.7328-0.183-6.5021,1.9629-8.7481,4.6248c-1.2301,1.4579-2.133,1.8228-3.993,1.0612c-4.1664-1.7061-7.3774-0.5842-9.0803,3.1745
		C0.4841,18.9833,0.1958,19.091,0,19.2406L0.0284,19.2752z"/>
	<path id="XMLID_21_" class="st1" d="M13.8627,23.7387c-2.5204,3.898-2.4183,7.6291,0.7011,11.1758
		c0.2073,0.2357,0.3584,0.5208,0.5356,0.7829c-0.3445-0.0388-0.7151-0.0084-1.0297-0.1267
		C8.3583,33.4218,4.1661,29.836,2.8245,23.585c-0.0938-0.4371-0.1548-0.8832-0.1973-1.3283
		c-0.0159-0.1666,0.0648-0.3425,0.1015-0.5141c0.1376,0.1218,0.3024,0.2237,0.4079,0.3687c0.4552,0.626,0.8472,1.3034,1.3449,1.8922
		c2.3604,2.792,5.0728,3.0801,7.9867,0.8762c0.4609-0.3486,0.9032-0.722,1.354-1.0839L13.8627,23.7387z"/>
	<path id="XMLID_20_" class="st1" d="M15.2442,2.2515c0.1904,2.1921-0.2993,4.105-2.2768,5.3655
		c-0.6595,0.4204-1.2642,0.6725-1.4838-0.5171c-0.1112-0.6021-0.5016-1.1856-0.8722-1.7011
		C9.2478,3.502,9.3349,2.7758,11.232,1.3822c0.4109-0.3019,0.8618-0.5701,1.3302-0.7694
		C15.0052-0.4267,15.1899-0.3064,15.2442,2.2515z"/>
	<path id="XMLID_19_" class="st1" d="M9.3091,9.6343C6.7426,9.5749,4.5249,6.8709,5.0385,4.5794
		C5.091,4.3452,5.3656,4.0303,5.5854,3.9845C7.5186,3.582,10.4255,5.6832,10.833,7.708C11.1155,9.1118,10.6853,9.8439,9.3091,9.6343
		z"/>
	<path id="XMLID_18_" class="st1" d="M10.8906,19.1162c-0.0669,1.9994-1.6767,3.964-2.5881,3.5401
		c-0.7612-0.3541-1.5513-1.3689-1.6829-2.194c-0.232-1.4549,1.3358-3.1416,2.4856-2.8009
		C9.9044,17.8981,10.5102,18.7876,10.8906,19.1162z"/>
	<polygon id="XMLID_17_" points="13.8223,23.7958 13.7931,23.6801 13.8599,23.7416 	"/>
	<path id="XMLID_16_" class="st1" d="M48.5728,9.5281c-0.9932,4.1091-1.9867,8.2189-3.0602,12.6601
		c-2.0551-4.6277-3.6422-8.9923-6.2006-12.8035c-1.0642-0.0677-1.957-0.1856-2.7209,0.0487
		c-0.0783,0.0704-0.1408,0.1474-0.1966,0.2271l-2.7601,11.2147c-0.0798,0.3788-0.1715,0.7548-0.2775,1.1275l-0.7676,3.119
		c-0.0571,0.2617-0.1226,0.5224-0.1926,0.7826l-0.0142,0.0577l-0.0023,0.004c-0.2413,0.8911-0.5122,1.7837-0.551,2.7361
		c1.1399,0.3181,2.2653,0.256,3.4862,0.0408c1.1023-4.542,2.1912-9.0292,3.3629-13.8572c2.6406,4.6372,4.1983,9.3434,5.9334,13.9048
		c1.0604,0.1132,1.949,0.2403,2.9894-0.117c1.5117-6.3159,3.0381-12.6931,4.6054-19.2409
		C50.9251,9.287,49.8037,9.1769,48.5728,9.5281z"/>
</g>
</svg>
